<?xml version="1.0" encoding="utf-8"?>
<!-- Generator: Adobe Illustrator 23.1.0, SVG Export Plug-In . SVG Version: 6.00 Build 0)  -->
<svg version="1.1" id="Capa_1" xmlns="http://www.w3.org/2000/svg" xmlns:xlink="http://www.w3.org/1999/xlink" x="0px" y="0px"
	 viewBox="0 0 134 45" style="enable-background:new 0 0 134 45;" xml:space="preserve">
<style type="text/css">
	.st0{fill-opacity:0.2;}
	.st1{fill:#FFFFFF;}
	.st2{fill:#F69E06;}
	.st3{opacity:0.1;}
	.st4{opacity:0.2;fill:#FFFFFF;}
	.st5{opacity:0.4;fill:#FFFFFF;}
	.st6{opacity:0.3;fill:#FFFFFF;}
	.st7{fill:#E6E6E6;}
</style>
<g>
	<g>
		<g id="g1806_1_">
			<path class="st0" d="M5.5,6.3c-7.3,6.1-7.3,28.1,0,34.1c7.2,6,115.8,6,123.1,0c7.3-6.1,7.3-28.1,0-34.1
				C121.1,0.2,12.9,0.2,5.5,6.3z"/>
			<path class="st1" d="M5.5,4.6c-7.3,6.1-7.3,28.1,0,34.1c7.2,6,115.8,6,123.1,0c7.3-6.1,7.3-28.1,0-34.1
				C121.1-1.5,12.9-1.5,5.5,4.6z"/>
			<path class="st2" d="M7.4,5.1c-6.6,5.5-6.7,25.4,0,30.9c6.5,5.4,112.7,5.4,119.3,0c6.6-5.5,6.6-25.4,0-30.9
				C119.9-0.4,14.1-0.4,7.4,5.1z"/>
			<path class="st3" d="M126.6,31.9c-6.5,5.5-112.7,5.5-119.3,0c-2.9-2.5-4.6-7.7-4.9-13.4c-0.4,7,1.2,14.5,4.9,17.5
				c6.5,5.4,112.7,5.4,119.3,0c3.7-3.1,5.3-10.5,4.9-17.5C131.2,24.2,129.6,29.4,126.6,31.9z"/>
			<path class="st3" d="M5.3,29.4c0.6,1,1.3,1.9,2.1,2.5c6.5,5.5,112.7,5.5,119.3,0c2.5-2.1,4.1-6.3,4.7-11
				C119,28.4,21.8,31.2,5.3,29.4z"/>
			<path class="st4" d="M7.4,5.1c-2,1.7-3.4,4.6-4.2,8.1c11.5-10,117.2-11.5,127-2.1c-0.8-2.5-2-4.6-3.6-5.9
				C119.9-0.4,14.1-0.4,7.4,5.1z"/>
			<path class="st5" d="M12.6,3.8C9.8,4.5,7.5,6.1,7.5,7.4c0,1.3,2.3,1.9,5.1,1.2C15.4,8,17.7,6.3,17.7,5
				C17.7,3.7,15.4,3.1,12.6,3.8z"/>
			<path class="st5" d="M21.1,2c-1.6,0.1-3,0.7-3.2,1.4c-0.2,0.7,1,1.2,2.5,1.1c1.6-0.1,3-0.7,3.2-1.4C23.8,2.4,22.7,1.9,21.1,2z"/>
			<path class="st6" d="M123.3,28.9c-1.8,0.7-3.1,2-2.9,2.9c0.2,0.9,1.8,1,3.6,0.3c1.8-0.7,3.1-2,2.9-2.9
				C126.6,28.3,125.1,28.2,123.3,28.9z"/>
			<path class="st6" d="M131.3,20.9c-0.6,4.7-2.2,8.9-4.7,11c-6.5,5.5-112.7,5.5-119.3,0c-0.8-0.7-1.5-1.5-2.1-2.5
				c-1.6-2.8-2.6-6.7-2.8-10.8c0,0.8-0.1,1.6-0.1,2.5c0-0.6,0-1.1,0.1-1.7c0.3,5.6,2,10.9,4.9,13.4c6.5,5.4,112.7,5.4,119.3,0
				c2.9-2.5,4.6-7.7,4.9-13.4c0,0.6,0.1,1.1,0.1,1.7c0-0.8,0-1.6-0.1-2.5C131.5,19.3,131.4,20.1,131.3,20.9z"/>
			<path class="st7" d="M128.5,37.8c-7.2,6-115.8,6-123.1,0c-3.6-3-5.4-9.7-5.5-16.6c-0.1,7.2,1.7,14.4,5.5,17.5
				c7.2,6,115.8,6,123.1,0c3.7-3.1,5.5-10.3,5.5-17.5C133.9,28.1,132.1,34.8,128.5,37.8z"/>
		</g>
	</g>
</g>
</svg>
