<?xml version="1.0" encoding="utf-8"?>
<!-- Generator: Adobe Illustrator 19.2.1, SVG Export Plug-In . SVG Version: 6.00 Build 0)  -->
<svg version="1.1" id="Capa_1" xmlns="http://www.w3.org/2000/svg" xmlns:xlink="http://www.w3.org/1999/xlink" x="0px" y="0px"
	 viewBox="0 0 100 30" style="enable-background:new 0 0 100 30;" xml:space="preserve">
<style type="text/css">
	.st0{fill:#FFEFCC;}
	.st1{fill:#EBB200;}
	.st2{fill:#FCD67F;}
</style>
<g id="g3158_2_">
	<path class="st0" d="M92.6,1.3c-10.7-1.7-74.8-1.7-85.5,0C3.6,1.9,0.7,5.1,0.5,9c0,12.4,0.1,1.1,0.1,13.1c0.2,3.4,2.9,6.5,5.9,7.4
		c2.2,0.6,84.8,0.6,87.1,0c3-0.9,5.7-4,5.9-7.4c0-12,0.1,0.7,0.1-13.1C99.3,5.1,96.4,1.9,92.6,1.3z"/>
	<path class="st1" d="M92.6,1.3c-10.7-1.7-74.8-1.7-85.5,0C3.6,1.8,0.7,5,0.5,8.9c0,14,0.1-0.2,0.1,12.5c0.2,3.3,2.9,5.4,5.9,6.3
		c2.2,0.6,84.8,0.6,87.1,0c3-0.8,5.7-2.9,5.9-6.3c0-12.7,0.1,0.1,0.1-12.5C99.3,5,96.4,1.8,92.6,1.3z"/>
	<path class="st2" d="M92.6,2C82.1,0.3,17.9,0.3,7.3,2C3.6,2.5,0.7,5.7,0.5,9.5c0.1-0.1,0.1,11.9,0.1,11.9c0.2,3.3,2.9,5.2,5.9,6.1
		c2.2,0.6,84.8,0.6,87.1,0c3-0.8,5.7-2.8,5.9-6.1c0-2.1,0.1-10.6,0.1-11.9C99.3,5.7,96.4,2.5,92.6,2z"/>
</g>
</svg>
