<?xml version="1.0" encoding="utf-8"?>
<!-- Generator: Adobe Illustrator 19.2.1, SVG Export Plug-In . SVG Version: 6.00 Build 0)  -->
<svg version="1.1" id="Capa_1" xmlns="http://www.w3.org/2000/svg" xmlns:xlink="http://www.w3.org/1999/xlink" x="0px" y="0px"
	 viewBox="0 0 530 155" style="enable-background:new 0 0 530 155;" xml:space="preserve">
<style type="text/css">
	.st0{fill:#010202;fill-opacity:0.2;}
	.st1{fill:#FFFFFF;}
	.st2{fill:#FCE4A9;}
	.st3{fill:#FBD16A;}
	.st4{fill:#FFEFCC;}
	.st5{fill:#FCDC93;}
	.st6{fill:#E7E7E7;}
</style>
<g id="_2674317510320_1_">
	<path class="st0" d="M515.1,4.3C493.5,1,36.5,1,14.9,4.3C7.4,5.5,1.7,11.8,1.2,19.5c-1.6,25.8-1.6,95.9,0.1,120.1
		c0.5,6.7,5.8,12.8,12,14.4c4.5,1.2,498.9,1.2,503.4,0c6.2-1.7,11.5-7.8,12-14.4c1.7-24.2,1.7-94.3,0.1-120.1
		C528.3,11.8,522.6,5.5,515.1,4.3z"/>
	<path class="st1" d="M514.7,2.5c-21.5-3.4-477.9-3.4-499.5,0C7.8,3.7,2.1,10,1.6,17.7C0,43.5,0,113.6,1.7,137.8
		c0.5,6.7,5.8,12.8,12,14.4c4.5,1.2,498.2,1.2,502.7,0c6.1-1.7,11.5-7.8,12-14.4c1.7-24.2,1.7-94.3,0.1-120.1
		C527.9,10,522.2,3.7,514.7,2.5z"/>
	<path class="st2" d="M512.7,3.7c-20.9-3.3-474.5-3.3-495.5,0C10.1,4.9,4.5,11,4,18.5c-1.5,25-1.5,93.6,0.1,117.1
		c0.4,6.5,5.6,12.4,11.6,14c4.4,1.2,494.2,1.2,498.6,0c6-1.6,11.2-7.6,11.6-14c1.6-23.5,1.7-92.1,0.1-117.1
		C525.5,11,519.9,4.9,512.7,3.7z"/>
	<path class="st3" d="M523.2,130.2c-0.4,6.5-5.6,12.4-11.6,14c-4.4,1.2-490,1.4-494.4,0.2c-6-1.6-11.2-7.6-11.6-14
		c-1.3-18.8-2.6-71.9-2.2-99.3c-0.9,27.4-0.7,84.4,0.7,104.5c0.4,6.5,5.6,12.4,11.6,14c4.4,1.2,494.2,1.2,498.6,0
		c6-1.6,11.2-7.6,11.6-14c1.4-21,1.6-80.9,0.5-108.2C526.7,54.9,524.6,110.5,523.2,130.2z"/>
	<path class="st4" d="M523.2,130.2c-0.4,6.5-5.6,12.4-11.6,14c-4.4,1.2-490,1.4-494.4,0.2c-6-1.6-11.2-7.6-11.6-14
		c-1.1-16.7-2.3-63.5-2.3-89.6c0,0,0,0,0,0c0,26.2,1.1,73.5,2.3,90.4c0.4,6.5,5.6,12.4,11.6,14c4.4,1.2,490,1,494.4-0.2
		c6-1.6,11.2-7.6,11.6-14c1.3-18.7,3.3-71.2,3.2-98.5C526.5,59.7,524.5,111.7,523.2,130.2z"/>
	<path class="st5" d="M5,119.7c0.2,4,0.4,7.6,0.6,10.7c0.4,6.5,5.6,12.4,11.6,14c4.4,1.2,490,1,494.4-0.2c6-1.6,11.2-7.6,11.6-14
		c0.1-0.9,0.1-1.9,0.2-3C475.9,140.7,62.8,135.4,5,119.7z"/>
	<path class="st4" d="M526,18.5c-0.5-7.5-6.1-13.6-13.3-14.8c-20.9-3.3-474.5-3.3-495.5,0C10.1,4.9,4.5,11,4,18.5
		c-0.2,3.6-0.4,7.9-0.6,12.6c0,0.9,0,1.7,0,2.6c0.2-5,0.4-9.5,0.6-13.4c0.2-3.8,1.8-7.3,4.2-9.9c-0.4,0.9-0.4,1.8-0.1,2.5
		c0.9,2.1,4.5,2.5,8,0.9c3.5-1.6,5.5-4.6,4.6-6.7c-0.4-0.9-1.3-1.5-2.5-1.8C41,2.3,492.1,2.3,512.7,5.5c7.2,1.1,12.8,7.3,13.3,14.8
		c0.2,2.8,0.3,5.9,0.5,9.3c0-0.7,0-1.5,0-2.2C526.3,24.2,526.2,21.2,526,18.5z"/>
	<path class="st6" d="M516.4,151.3c-4.5,1.2-498.2,1.2-502.7,0c-6.1-1.7-11.5-7.8-12-14.4c-0.8-12.3-1.3-32.6-1.3-53
		c0,0,0,0.1,0,0.1c0,20.7,0.4,41.4,1.3,53.8c0.5,6.7,5.8,12.8,12,14.4c4.5,1.2,498.2,1.2,502.7,0c6.1-1.7,11.5-7.8,12-14.4
		c0.9-12.5,1.3-33.2,1.3-53.9c0,20.4-0.4,40.7-1.3,53C527.8,143.6,522.5,149.7,516.4,151.3z"/>
</g>
</svg>
