<?xml version="1.0" encoding="utf-8"?>
<!-- Generator: Adobe Illustrator 19.2.1, SVG Export Plug-In . SVG Version: 6.00 Build 0)  -->
<svg version="1.1" id="Capa_1" xmlns="http://www.w3.org/2000/svg" xmlns:xlink="http://www.w3.org/1999/xlink" x="0px" y="0px"
	 viewBox="0 0 400 342" style="enable-background:new 0 0 400 342;" xml:space="preserve">
<style type="text/css">
	.st0{fill:#010202;fill-opacity:0.2;}
	.st1{fill:#FFFFFF;}
	.st2{fill:#FCE4A9;}
	.st3{fill:#FBD16A;}
	.st4{fill:#FFEFCC;}
	.st5{fill:#FCDC93;}
	.st6{fill:#E7E7E7;}
</style>
<g id="_2674317510320">
	<path class="st0" d="M365.8,9.6C316,2.1,84,2.1,34.2,9.6C17.1,12.1,3.8,26,2.7,43.1C-1,100-0.9,254.7,2.9,308.1
		C4,322.8,16.3,336.3,30.5,340c10.4,2.7,328.5,2.7,338.9,0c14.2-3.7,26.5-17.2,27.6-31.9c3.8-53.4,3.9-208.1,0.3-265
		C396.2,26,382.9,12.1,365.8,9.6z"/>
	<path class="st1" d="M364.9,5.6c-49.5-7.4-280.3-7.4-329.9,0C18,8.1,4.7,22,3.6,39.1C0,96,0.1,250.7,3.9,304.1
		C5,318.8,17.2,332.3,31.4,336c10.4,2.7,326.9,2.7,337.2,0c14.1-3.7,26.4-17.2,27.5-31.9c3.8-53.4,3.9-208.1,0.3-265
		C395.3,22,382,8.1,364.9,5.6z"/>
	<path class="st2" d="M360.3,8.2C312.2,1,87.8,1,39.7,8.2c-16.6,2.5-29.5,16-30.5,32.6C5.6,96,5.7,247.2,9.4,299.2
		c1,14.3,13,27.4,26.7,30.9c10.1,2.6,317.7,2.6,327.8,0c13.7-3.6,25.7-16.7,26.7-30.9c3.7-51.9,3.8-203.1,0.2-258.3
		C389.8,24.2,376.9,10.7,360.3,8.2z"/>
	<path class="st3" d="M384.5,287.3c-1,14.3-13,27.4-26.7,30.9c-10.1,2.6-308,3-318.1,0.4C26,315,14,301.9,13,287.6
		c-3-41.5-5.9-158.7-5.2-219.1c-2.1,60.6-1.6,186.2,1.6,230.6c1,14.3,13,27.4,26.7,30.9c10.1,2.6,317.7,2.6,327.8,0
		c13.7-3.6,25.7-16.7,26.7-30.9c3.3-46.4,3.7-178.6,1.3-238.7C392.4,121.1,387.6,243.8,384.5,287.3z"/>
	<path class="st4" d="M384.5,287.3c-1,14.3-13,27.4-26.7,30.9c-10.1,2.6-308,3-318.1,0.4C26,315,14,301.9,13,287.6
		c-2.6-36.8-5.3-140.2-5.3-197.8c0,0,0,0,0,0c0,57.9,2.6,162.2,5.3,199.4c1,14.3,13,27.4,26.7,30.9c10.1,2.6,308,2.3,318.1-0.4
		c13.7-3.6,25.7-16.7,26.7-31c3-41.2,7.5-157.1,7.4-217.3C391.8,131.7,387.4,246.4,384.5,287.3z"/>
	<path class="st5" d="M11.6,264c0.5,8.8,1,16.8,1.5,23.6c1,14.3,13,27.4,26.7,31c10.1,2.6,308,2.3,318.1-0.4
		c13.7-3.6,25.7-16.7,26.7-30.9c0.1-2.1,0.3-4.3,0.5-6.6C275.6,310.5,144.5,298.8,11.6,264z"/>
	<path class="st4" d="M390.8,40.8c-1.1-16.6-13.9-30.1-30.5-32.6C312.2,1,87.8,1,39.7,8.2c-16.6,2.5-29.5,16-30.5,32.6
		c-0.5,8-1,17.4-1.3,27.7c0,1.9,0,3.8-0.1,5.7c0.4-11,0.8-21,1.4-29.5c0.5-8.4,4.2-16.1,9.8-21.9c-0.9,2-1,3.9-0.2,5.6
		c2.2,4.6,10.4,5.5,18.4,2c8-3.5,12.7-10.1,10.6-14.7c-0.9-2-3-3.3-5.7-3.9c52.3-6.9,271-6.8,318.4,0.3c16.6,2.5,29.5,16,30.5,32.6
		c0.4,6.1,0.7,13,1,20.5c0-1.6,0-3.2,0-4.8C391.5,53.3,391.2,46.7,390.8,40.8z"/>
	<path class="st6" d="M368.6,333.9c-10.4,2.7-326.9,2.7-337.2,0C17.2,330.2,5,316.7,3.9,302.1C2,274.9,1,230.1,1,185.1
		c0,0.1,0,0.1,0,0.2c0,45.6,1,91.3,2.9,118.8C5,318.8,17.2,332.3,31.4,336c10.4,2.7,326.9,2.7,337.2,0c14.1-3.7,26.4-17.2,27.5-31.9
		c2-27.6,3-73.3,2.9-119c0,45-1,89.8-2.9,117C395,316.7,382.8,330.2,368.6,333.9z"/>
</g>
</svg>
