<?xml version="1.0" encoding="utf-8"?>
<!-- Generator: Adobe Illustrator 19.2.1, SVG Export Plug-In . SVG Version: 6.00 Build 0)  -->
<svg version="1.1" id="Capa_1" xmlns="http://www.w3.org/2000/svg" xmlns:xlink="http://www.w3.org/1999/xlink" x="0px" y="0px"
	 viewBox="0 0 40 40" style="enable-background:new 0 0 40 40;" xml:space="preserve">
<style type="text/css">
	.st0{fill:#010202;fill-opacity:0.2;}
	.st1{fill:#FFFFFF;}
	.st2{fill:#EC6052;}
	.st3{fill:#E6321C;}
	.st4{fill:#E84135;}
	.st5{fill:#F28E73;}
	.st6{fill:#F7B9AA;}
	.st7{fill:#E7E7E7;}
	.st8{fill:#010202;fill-opacity:0.102;}
</style>
<g id="g5468">
	<g id="g5452">
		<path class="st0" d="M5,5.7C-0.4,11.1-0.4,30.6,5,36c5.4,5.3,24.5,5.3,29.9,0c5.4-5.4,5.4-25,0-30.4C29.4,0.2,10.5,0.2,5,5.7z"/>
		<path class="st1" d="M5,4.1c-5.4,5.4-5.4,24.9,0,30.4c5.4,5.3,24.5,5.3,29.9,0c5.4-5.4,5.4-25,0-30.4C29.4-1.3,10.5-1.3,5,4.1z"/>
		<path class="st2" d="M6.4,4.6c-4.9,4.9-4.9,22.6,0,27.5c4.9,4.8,22.2,4.8,27.1,0c4.9-4.9,4.9-22.6,0-27.5
			C28.5-0.3,11.4-0.3,6.4,4.6z"/>
		<path class="st3" d="M33.5,28.4c-4.9,4.8-22.2,4.8-27.1,0C4.2,26.2,3,21.5,2.8,16.5c-0.3,6.2,0.9,12.9,3.6,15.6
			c4.9,4.8,22.2,4.8,27.1,0c2.7-2.7,3.9-9.4,3.6-15.6C36.9,21.5,35.7,26.2,33.5,28.4z"/>
		<path class="st4" d="M4.9,26.1c0.4,0.9,1,1.7,1.5,2.3c4.9,4.8,22.2,4.8,27.1,0c1.9-1.9,3-5.6,3.5-9.8
			C27.9,25.3,17.1,27.8,4.9,26.1z"/>
		<path class="st5" d="M6.4,4.6C5,6.1,3.9,8.7,3.3,11.8c8.5-8.8,25.6-10.3,32.8-1.9c-0.6-2.3-1.5-4.1-2.7-5.3
			C28.5-0.3,11.4-0.3,6.4,4.6z"/>
		<path class="st6" d="M10.3,3.4C8.2,4,6.5,5.5,6.5,6.6s1.7,1.7,3.8,1.1c2.1-0.6,3.8-2,3.8-3.2C14.1,3.3,12.4,2.8,10.3,3.4z"/>
		<path class="st6" d="M16.6,1.8c-1.2,0.1-2.2,0.6-2.4,1.3c-0.1,0.6,0.7,1.1,1.9,1c1.2-0.1,2.2-0.6,2.4-1.3
			C18.6,2.2,17.8,1.7,16.6,1.8z"/>
		<path class="st6" d="M31,25.7c-1.3,0.6-2.3,1.8-2.1,2.6c0.1,0.8,1.3,0.9,2.6,0.3c1.3-0.6,2.3-1.8,2.1-2.6
			C33.5,25.2,32.3,25.1,31,25.7z"/>
		<path class="st5" d="M37,18.6c-0.4,4.2-1.6,7.9-3.5,9.8c-4.9,4.8-22.2,4.8-27.1,0c-0.6-0.6-1.1-1.4-1.5-2.3
			c-1.2-2.5-1.9-6-2.1-9.6c0,0.7,0,1.5,0,2.2c0-0.5,0-1,0-1.5c0.2,5,1.4,9.7,3.6,11.9c4.9,4.8,22.2,4.8,27.1,0
			c2.2-2.2,3.4-6.9,3.6-11.9c0,0.5,0,1,0,1.5c0-0.7,0-1.5,0-2.2C37.1,17.2,37,17.9,37,18.6z"/>
		<path class="st7" d="M5,33.7C2.4,31,1,25,1,18.9C0.9,25.3,2.2,31.7,5,34.5c5.4,5.3,24.5,5.3,29.9,0c2.8-2.8,4.1-9.2,4.1-15.6
			C38.9,25,37.5,31,34.9,33.7C29.5,39,10.4,39,5,33.7z"/>
	</g>
	<g id="g5466">
		<g id="g5458">
			<path class="st3" d="M14.5,28.4c-0.5,0-1.1-0.2-1.5-0.6l-2.8-2.7c-0.8-0.8-0.9-2.2,0-3l4.1-4.2l-4.1-4.2c-0.8-0.8-0.8-2.2,0-3
				L13,8.1c0.8-0.8,2.2-0.8,3,0l3.9,4l3.9-4c0.8-0.8,2.2-0.9,3,0l2.8,2.7c0.8,0.8,0.9,2.2,0,3l-4.1,4.2l4.1,4.2c0.8,0.8,0.8,2.2,0,3
				l-2.8,2.7c-0.8,0.8-2.2,0.8-3,0l-3.9-4l-3.9,4C15.6,28.2,15.1,28.4,14.5,28.4z M20,20.2l5.4,5.6l2.3-2.2l-5.5-5.6l5.5-5.6
				l-2.3-2.2L20,15.7l-5.4-5.6l-2.3,2.2l5.5,5.6l-5.5,5.6l2.3,2.2L20,20.2z M27.9,23.8C27.9,23.8,27.9,23.8,27.9,23.8L27.9,23.8z
				 M27.9,12C27.9,12,27.9,12,27.9,12L27.9,12z"/>
			<path class="st1" d="M28.8,11.6L26,9c-0.3-0.3-0.9-0.3-1.3,0L20,13.9L15.2,9c-0.3-0.3-0.9-0.4-1.3,0l-2.8,2.7
				c-0.3,0.3-0.4,0.9,0,1.3l4.9,5l-4.9,5c-0.3,0.3-0.3,0.9,0,1.3l2.8,2.7c0.3,0.3,0.9,0.3,1.3,0L20,22l4.8,4.9
				c0.3,0.3,0.9,0.4,1.3,0l2.8-2.7c0.3-0.3,0.4-0.9,0-1.3l-4.9-5l4.9-5C29.1,12.5,29.1,12,28.8,11.6z"/>
		</g>
		<path class="st8" d="M11.1,11.6c-0.3,0.3-0.4,0.9,0,1.3l4.9,5l0.7-0.7l-5.5-5.6L11.1,11.6z"/>
		<path class="st8" d="M28.6,22.8L26,25.4c-0.3,0.3-0.9,0.3-1.3,0L20,20.5l-4.8,4.9c-0.3,0.3-0.9,0.4-1.3,0l-2.7-2.6L11.1,23
			c-0.3,0.3-0.3,0.9,0,1.3l2.8,2.7c0,0,0,0,0,0c0.2,0.1,0.4,0.2,0.6,0.2c0.2,0,0.5-0.1,0.7-0.3L20,22l4.8,4.9
			c0.2,0.2,0.4,0.3,0.7,0.3c0.2-0.1,0.4-0.1,0.6-0.2c0,0,0,0,0,0l2.8-2.7c0.3-0.3,0.4-0.9,0-1.3L28.6,22.8z"/>
		<path class="st8" d="M28.6,11.5l-5.5,5.6l0.7,0.7l4.9-5c0.3-0.3,0.3-0.9,0-1.3L28.6,11.5z"/>
	</g>
</g>
</svg>
