<?xml version="1.0" encoding="utf-8"?>
<!-- Generator: Adobe Illustrator 19.2.1, SVG Export Plug-In . SVG Version: 6.00 Build 0)  -->
<svg version="1.1" id="Capa_1" xmlns="http://www.w3.org/2000/svg" xmlns:xlink="http://www.w3.org/1999/xlink" x="0px" y="0px"
	 viewBox="0 0 300 400" style="enable-background:new 0 0 300 400;" xml:space="preserve">
<style type="text/css">
	.st0{fill:#010202;fill-opacity:0.2;}
	.st1{fill:#FFFFFF;}
	.st2{fill:#FCE4A9;}
	.st3{fill:#FBD16A;}
	.st4{fill:#FFEFCC;}
	.st5{fill:#FCDC93;}
	.st6{fill:#E7E7E7;}
</style>
<g id="_2674317510320">
	<path class="st0" d="M265.9,11.6C216.1,4.1,85,4.1,35.2,11.6C18.1,14.1,4.8,28,3.7,45.1C0,102,0.1,312.7,3.9,366.1
		C5,380.8,17.3,394.3,31.5,398c10.4,2.7,227.6,2.7,238,0c14.2-3.7,26.5-17.2,27.6-31.9c3.8-53.4,3.9-264.1,0.3-321
		C296.3,28,283,14.1,265.9,11.6z"/>
	<path class="st1" d="M265,7.6c-49.5-7.4-179.4-7.4-229,0C19,10.1,5.7,24,4.6,41.1C1,98,1.1,308.7,4.9,362.1
		C6,376.8,18.2,390.3,32.4,394c10.4,2.7,226,2.7,236.3,0c14.1-3.7,26.4-17.2,27.5-31.9c3.8-53.4,3.9-264.1,0.3-321
		C295.4,24,282.1,10.1,265,7.6z"/>
	<path class="st2" d="M260.4,10.2C212.3,3,88.8,3,40.7,10.2c-16.6,2.5-29.5,16-30.5,32.6C6.6,98,6.7,305.2,10.4,357.2
		c1,14.3,13,27.4,26.7,30.9c10.1,2.6,216.8,2.6,226.9,0c13.7-3.6,25.7-16.7,26.7-30.9c3.7-51.9,3.8-259.1,0.2-314.3
		C289.9,26.2,277,12.7,260.4,10.2z"/>
	<path class="st3" d="M284.6,345.3c-1,14.3-13,27.4-26.7,30.9c-10.1,2.6-207.1,3-217.2,0.4C27,373,15,359.9,14,345.6
		c-3-41.5-5.9-214.7-5.2-275.1c-2.1,60.6-1.6,242.2,1.6,286.6c1,14.3,13,27.4,26.7,30.9c10.1,2.6,216.8,2.6,226.9,0
		c13.7-3.6,25.7-16.7,26.7-30.9c3.3-46.4,3.7-234.6,1.3-294.7C292.5,123.1,287.7,301.8,284.6,345.3z"/>
	<path class="st4" d="M284.6,345.3c-1,14.3-13,27.4-26.7,30.9c-10.1,2.6-207.1,3-217.2,0.4C27,373,15,359.9,14,345.6
		c-2.6-36.8-5.3-196.2-5.3-253.8l0,0c0,57.9,2.6,218.2,5.3,255.4c1,14.3,13,27.4,26.7,30.9c10.1,2.6,207.1,2.3,217.2-0.4
		c13.7-3.6,25.7-16.7,26.7-31c3-41.2,7.5-213.1,7.4-273.3C291.9,133.7,287.5,304.4,284.6,345.3z"/>
	<path class="st5" d="M12.6,322c0.5,8.8,1,16.8,1.5,23.6c1,14.3,13,27.4,26.7,31c10.1,2.6,207.1,2.3,217.2-0.4
		c13.7-3.6,25.7-16.7,26.7-30.9c0.1-2.1,0.3-4.3,0.5-6.6C175.7,368.5,54,356,12.6,322z"/>
	<path class="st4" d="M290.9,42.8c-1.1-16.6-13.9-30.1-30.5-32.6C212.3,3,88.8,3,40.7,10.2c-16.6,2.5-29.5,16-30.5,32.6
		c-0.5,8-1,17.4-1.3,27.7c0,1.9,0,3.8-0.1,5.7c0.4-11,0.8-21,1.4-29.5c0.5-8.4,4.2-16.1,9.8-21.9c-0.9,2-1,3.9-0.2,5.6
		c2.2,4.6,10.4,5.5,18.4,2s12.7-10.1,10.6-14.7c-0.9-2-3-3.3-5.7-3.9C95.4,6.9,213.2,7,260.6,14.1c16.6,2.5,29.5,16,30.5,32.6
		c0.4,6.1,0.7,13,1,20.5c0-1.6,0-3.2,0-4.8C291.6,55.3,291.3,48.7,290.9,42.8z"/>
	<path class="st6" d="M268.7,391.9c-10.4,2.7-226,2.7-236.3,0C18.2,388.2,6,374.7,4.9,360.1C3,332.9,2,259.1,2,214.1
		c0,0.1,0,0.1,0,0.2c0,45.6,1,120.3,2.9,147.8C6,376.8,18.2,390.3,32.4,394c10.4,2.7,226,2.7,236.3,0c14.1-3.7,26.4-17.2,27.5-31.9
		c2-27.6,3-102.3,2.9-148c0,45-1,118.8-2.9,146C295.1,374.7,282.9,388.2,268.7,391.9z"/>
</g>
</svg>
