<?xml version="1.0" encoding="utf-8"?>
<!-- Generator: Adobe Illustrator 19.2.1, SVG Export Plug-In . SVG Version: 6.00 Build 0)  -->
<svg version="1.1" id="Capa_1" xmlns="http://www.w3.org/2000/svg" xmlns:xlink="http://www.w3.org/1999/xlink" x="0px" y="0px"
	 viewBox="0 0 210 56" style="enable-background:new 0 0 210 56;" xml:space="preserve">
<style type="text/css">
	.st0{fill:#2C7431;}
	.st1{fill:#CECDCD;}
	.st2{fill:#010202;fill-opacity:0.2;}
	.st3{fill:#FFFFFF;}
	.st4{fill:#6BB538;}
	.st5{fill:#E7E7E7;}
	.st6{opacity:5.000000e-002;fill:#010202;enable-background:new    ;}
	.st7{opacity:0.2;fill:#FFFFFF;enable-background:new    ;}
</style>
<g>
	<g id="_2674317511344">
		<path class="st0" d="M204.8,1.4H5.2c-1.4,0-5.1,10.3-5.1,22.5h209.8C209.9,11.7,210.3,2,204.8,1.4z"/>
		<path class="st1" d="M0,24c1.4-0.1,2.8-0.1,4.2-0.2c0-9.2,0.6-19.7,3.2-22.5C6.8,0.8,5.1,1,4.4,1.5C2.6,2.7,0,12.9,0,24z"/>
		<path class="st1" d="M205,1.1c-0.8-0.1-1.7-0.3-2.3,0.2c3.1,2.7,3.1,13.2,3,22.5c1.4,0,2.9,0,4.2,0C210.1,12.9,210.2,2.1,205,1.1z
			"/>
	</g>
	<g id="g2128">
		<path class="st2" d="M11.2,21c-0.1,6.8-3.3,22.2-3.3,25.3C7.9,51,12,55,17.2,55h86.8h86.8c5.1,0,9.4-3.9,9.4-8.7
			c0-3.2-1.2-18.4-1.3-25.3C141.4,19.1,66.1,19,11.2,21z"/>
		<path class="st3" d="M5.2,1.4c8.6,0,5.4,31.5,5.4,39.9c0,4.9,4.1,8.9,9.2,8.9h85.3h85.3c5,0,9.2-4,9.2-8.9
			c0-8.4-3.2-39.9,5.4-39.9h-99.8C105.2,1.4,5.2,1.4,5.2,1.4z"/>
		<path class="st4" d="M11.1,1.4c8.1,0,5.1,27.7,5.1,35.1c0,4.3,3.9,7.8,8.7,7.8h80.2h80.2c4.7,0,8.7-3.6,8.7-7.8
			c0-7.5-3.1-35.1,5.1-35.1h-93.9C105.2,1.4,11.1,1.4,11.1,1.4z"/>
		<path class="st5" d="M190.3,48.6H105H19.8c-4.9,0-8.9-3.8-9.2-8.4c0,0.4,0,0.8,0,1.1c0,4.9,4.1,8.9,9.2,8.9h85.3h85.3
			c5,0,9.2-4,9.2-8.9c0-0.3,0-0.7,0-1.1C199.2,45,195.2,48.6,190.3,48.6z"/>
		<path class="st6" d="M97.2,37.7c-27.1-1.5-52.7-4.2-76.2-8.3c-1.4-0.3-3-0.5-4.4-0.8c0,0.3,0,0.6,0,0.9c-0.1,3-0.3,5.5-0.3,7.1
			c0,0.4,0,0.8,0.1,1.3c0.6,3.8,4.3,6.7,8.5,6.7H105h80.2c4.2,0,7.7-2.7,8.5-6.3C159.7,39.4,127.4,39.4,97.2,37.7z"/>
		<path class="st7" d="M15.7,7L195,7.1c0,0,2.1-5.8,4-5.8H11.2C13.5,1.4,15.7,7,15.7,7z"/>
	</g>
</g>
</svg>
