<?xml version="1.0" encoding="utf-8"?>
<!-- Generator: Adobe Illustrator 19.2.1, SVG Export Plug-In . SVG Version: 6.00 Build 0)  -->
<svg version="1.1" id="Capa_1" xmlns="http://www.w3.org/2000/svg" xmlns:xlink="http://www.w3.org/1999/xlink" x="0px" y="0px"
	 viewBox="0 0 150 60" style="enable-background:new 0 0 150 60;" xml:space="preserve">
<style type="text/css">
	.st0{fill:#010202;fill-opacity:0.2;}
	.st1{fill:#FFFFFF;}
	.st2{fill:#F59A0C;}
	.st3{opacity:0.1;fill:#010202;}
	.st4{opacity:0.2;fill:#FFFFFF;}
	.st5{opacity:0.4;fill:#FFFFFF;}
	.st6{opacity:0.3;fill:#FFFFFF;}
	.st7{fill:#E7E7E7;}
</style>
<g>
	<g id="g1806_2_">
		<path class="st0" d="M8.2,8.4c-9.8,8.1-9.8,37.4,0,45.5c9.6,8,124.1,8,133.8,0c9.8-8.1,9.7-37.4,0-45.5C132,0.3,18,0.3,8.2,8.4z"
			/>
		<path class="st1" d="M8.2,6.1c-9.8,8.1-9.8,37.4,0,45.5c9.6,8,124.1,8,133.8,0c9.8-8.1,9.7-37.4,0-45.5C132-2.1,18-2.1,8.2,6.1z"
			/>
		<path class="st2" d="M10.7,6.8c-8.8,7.3-8.9,33.9,0,41.3c8.7,7.3,120,7.3,128.7,0c8.8-7.4,8.8-33.9,0-41.3
			C130.4-0.6,19.6-0.6,10.7,6.8z"/>
		<path class="st3" d="M139.4,42.5c-8.7,7.3-120,7.3-128.7,0c-3.9-3.3-6.1-10.3-6.5-17.8C3.6,34.1,5.7,44,10.6,48.1
			c8.7,7.3,120,7.3,128.7,0c4.9-4.1,7.1-14,6.5-23.4C145.5,32.2,143.3,39.3,139.4,42.5z"/>
		<path class="st3" d="M7.8,39.1c0.8,1.4,1.7,2.5,2.8,3.4c8.7,7.3,120,7.3,128.7,0c3.4-2.8,5.5-8.4,6.2-14.7
			C129.2,37.9,29.9,41.6,7.8,39.1z"/>
		<path class="st4" d="M10.7,6.8C8,9,6.2,13,5.1,17.6c15.3-13.3,126-15.4,139-2.8c-1.1-3.4-2.7-6.2-4.8-7.9
			C130.4-0.6,19.6-0.6,10.7,6.8z"/>
		<path class="st5" d="M17.6,5c-3.8,0.9-6.8,3.1-6.8,4.8c0,1.8,3,2.5,6.8,1.6c3.8-0.9,6.8-3,6.8-4.8C24.5,4.9,21.4,4.2,17.6,5z"/>
		<path class="st5" d="M28.9,2.6c-2.1,0.1-4,1-4.3,1.9c-0.2,0.9,1.3,1.6,3.4,1.5c2.1-0.1,4-1,4.3-1.9C32.6,3.2,31,2.5,28.9,2.6z"/>
		<path class="st6" d="M134.9,38.5c-2.4,1-4.1,2.7-3.8,3.9c0.3,1.2,2.4,1.4,4.8,0.4c2.4-1,4.1-2.7,3.8-3.9
			C139.4,37.8,137.2,37.6,134.9,38.5z"/>
		<path class="st6" d="M145.6,27.9c-0.8,6.3-2.9,11.9-6.2,14.7c-8.7,7.3-120,7.3-128.7,0c-1.1-0.9-2-2-2.8-3.4
			c-2.2-3.7-3.4-8.9-3.7-14.4C4,25.8,4,26.9,4,28c0-0.8,0-1.5,0.1-2.3c0.4,7.5,2.6,14.5,6.5,17.8c8.7,7.3,120,7.3,128.7,0
			c3.9-3.3,6.1-10.3,6.5-17.8c0,0.8,0.1,1.5,0.1,2.3c0-1.1,0-2.2-0.1-3.3C145.8,25.8,145.7,26.8,145.6,27.9z"/>
		<path class="st7" d="M141.9,50.4c-9.6,8-124.1,8-133.8,0c-4.8-4-7.2-13-7.3-22.1c-0.1,9.5,2.3,19.2,7.3,23.4
			c9.6,8,124.1,8,133.8,0c5-4.1,7.4-13.8,7.3-23.4C149.1,37.5,146.6,46.5,141.9,50.4z"/>
	</g>
</g>
</svg>
