<?xml version="1.0" encoding="utf-8"?>
<!-- Generator: Adobe Illustrator 19.2.1, SVG Export Plug-In . SVG Version: 6.00 Build 0)  -->
<svg version="1.1" id="Capa_1" xmlns="http://www.w3.org/2000/svg" xmlns:xlink="http://www.w3.org/1999/xlink" x="0px" y="0px"
	 viewBox="0 0 260 45" style="enable-background:new 0 0 260 45;" xml:space="preserve">
<style type="text/css">
	.st0{fill:#497214;}
	.st1{fill:#CCCCCC;}
	.st2{fill-opacity:0.2;}
	.st3{fill:#FFFFFF;}
	.st4{fill:#85C041;}
	.st5{fill:#E6E6E6;}
	.st6{opacity:5.000000e-002;enable-background:new    ;}
	.st7{opacity:0.2;fill:#FFFFFF;enable-background:new    ;}
</style>
<g>
	<g id="_2674317511344_3_">
		<path class="st0" d="M255.5,0H5.6C2.3-0.5,1.3,8.3,1.3,18.5h258.5C259.7,8.4,260,0.5,255.5,0z"/>
		<path class="st1" d="M1.3,19c1.2,0,2.3-0.1,3.5-0.1c0-7.8,0.5-15.8,2.6-18.2C6.9,0.3,6.3,0,5.6,0C1.9,0,1.3,9.7,1.3,19z"/>
		<path class="st1" d="M255.5,0c-0.7,0-1.2,0.2-1.7,0.6c2.5,2.3,2.8,10.2,2.7,17.9c1.2,0,2.4,0.1,3.5,0.1C260.1,9.5,259.7,0,255.5,0
			z"/>
	</g>
	<g id="g2128_3_">
		<path class="st2" d="M9.1,18.1c0,5.8-0.5,16.9-0.5,19.6c0,4,3.5,7.3,7.8,7.3h111.3h117.1c4.3,0,7.8-3.3,7.8-7.3
			c0-2.7-0.4-13.8-0.5-19.6C204.2,16.6,54.8,16.5,9.1,18.1z"/>
		<path class="st3" d="M5.7,0c7.1,0,4.5,26.4,4.5,33.5c0,4.1,3.4,7.5,7.6,7.5h110h115.8c4.2,0,7.6-3.4,7.6-7.5
			c0-7.1-2.7-33.5,4.5-33.5H127.8H5.7z"/>
		<path class="st4" d="M10.6,0c6.7,0,4.2,23.3,4.2,29.5c0,3.6,3.2,6.6,7.2,6.6h105.8h111.6c3.9,0,7.2-3,7.2-6.6
			c0-6.2-2.5-29.5,4.2-29.5h-123C127.8,0,10.6,0,10.6,0z"/>
		<path class="st5" d="M243.5,39.7H127.8h-110c-4.1,0-7.4-3.2-7.6-7.1c0,0.3,0,0.6,0,0.9c0,4.1,3.4,7.5,7.6,7.5h110h115.8
			c4.2,0,7.6-3.4,7.6-7.5c0-0.3,0-0.6,0-0.9C250.9,36.6,247.5,39.7,243.5,39.7z"/>
		<path class="st6" d="M121.3,30.5c-22.6-1.2-82.8-3.5-102.5-7c-1.2-0.2-2.4-0.4-3.6-0.7c0,0.2,0,0.5,0,0.7C15.1,26,15,28.1,15,29.4
			c0,0.4,0,0.7,0.1,1c0.5,3.1,3.5,5.6,7.1,5.6H128h111.6c3.5,0,6.4-2.3,7-5.3C218,31.9,146.4,31.9,121.3,30.5z"/>
		<path class="st7" d="M14.4,4.8c50-2.5,183.5-2.7,233-1.6c0.7-2,1.8-3.2,3.3-3.2H10.6C12.6,0,13.8,1.9,14.4,4.8z"/>
	</g>
</g>
</svg>
