<?xml version="1.0" encoding="utf-8"?>
<!-- Generator: Adobe Illustrator 23.1.0, SVG Export Plug-In . SVG Version: 6.00 Build 0)  -->
<svg version="1.1" id="Capa_1" xmlns="http://www.w3.org/2000/svg" xmlns:xlink="http://www.w3.org/1999/xlink" x="0px" y="0px"
	 viewBox="0 0 122 50" style="enable-background:new 0 0 122 50;" xml:space="preserve">
<style type="text/css">
	.st0{fill-opacity:0.2;}
	.st1{fill:#FFFFFF;}
	.st2{fill:#F69E06;}
	.st3{opacity:0.1;}
	.st4{opacity:0.2;fill:#FFFFFF;}
	.st5{opacity:0.4;fill:#FFFFFF;}
	.st6{opacity:0.3;fill:#FFFFFF;}
	.st7{fill:#E6E6E6;}
</style>
<g>
	<g>
		<g id="g1806_3_">
			<path class="st0" d="M6.5,7c-8.7,6.8-8.7,31.2,0,37.9c8.6,6.7,100.5,6.7,109,0c8.7-6.8,8.6-31.2,0-37.9C106.7,0.2,15.3,0.2,6.5,7
				z"/>
			<path class="st1" d="M6.5,5.1c-8.7,6.8-8.7,31.2,0,37.9c8.6,6.7,100.5,6.7,109,0c8.7-6.8,8.6-31.2,0-37.9
				C106.7-1.7,15.3-1.7,6.5,5.1z"/>
			<path class="st2" d="M8.8,5.7c-7.9,6.1-7.9,28.3,0,34.4c7.8,6.1,96.8,6.1,104.5,0c7.9-6.1,7.8-28.3,0-34.4
				C105.3-0.5,16.7-0.5,8.8,5.7z"/>
			<path class="st3" d="M113.3,35.4c-7.8,6.1-96.8,6.1-104.5,0c-3.5-2.7-5.4-8.6-5.8-14.8c-0.5,7.8,1.5,16.1,5.8,19.5
				c7.8,6.1,96.8,6.1,104.5,0c4.3-3.4,6.3-11.7,5.8-19.5C118.7,26.8,116.8,32.7,113.3,35.4z"/>
			<path class="st3" d="M6.3,32.6c0.7,1.1,1.5,2.1,2.5,2.8c7.8,6.1,96.8,6.1,104.5,0c3-2.3,4.8-7,5.6-12.2
				C104.2,31.6,25.9,34.6,6.3,32.6z"/>
			<path class="st4" d="M8.8,5.7c-2.4,1.8-4,5.1-5,9C17.4,3.6,105.9,1.8,117.5,12.3c-1-2.8-2.4-5.2-4.3-6.6
				C105.3-0.5,16.7-0.5,8.8,5.7z"/>
			<path class="st5" d="M15,4.2c-3.3,0.7-6,2.5-6,4c0,1.5,2.7,2.1,6,1.3c3.3-0.7,6-2.5,6-4C21,4.1,18.3,3.5,15,4.2z"/>
			<path class="st5" d="M25,2.2c-1.9,0.1-3.6,0.8-3.8,1.6c-0.2,0.8,1.1,1.3,3,1.3C26.1,5,27.8,4.3,28,3.5C28.2,2.7,26.9,2.1,25,2.2z
				"/>
			<path class="st6" d="M109.3,32.1c-2.1,0.8-3.6,2.2-3.4,3.2c0.2,1,2.1,1.1,4.2,0.3c2.1-0.8,3.6-2.2,3.4-3.2
				C113.3,31.5,111.4,31.3,109.3,32.1z"/>
			<path class="st6" d="M118.8,23.2c-0.7,5.2-2.6,9.9-5.6,12.2c-7.8,6.1-96.8,6.1-104.5,0c-0.9-0.7-1.8-1.7-2.5-2.8
				c-1.9-3.1-3-7.5-3.3-12c-0.1,0.9-0.1,1.8-0.1,2.7c0-0.6,0-1.3,0.1-1.9c0.4,6.2,2.3,12.1,5.8,14.8c7.8,6.1,96.8,6.1,104.5,0
				c3.5-2.7,5.4-8.6,5.8-14.8c0,0.6,0.1,1.3,0.1,1.9c0-0.9,0-1.8-0.1-2.7C119,21.5,118.9,22.4,118.8,23.2z"/>
			<path class="st7" d="M115.5,42c-8.6,6.7-100.5,6.7-109,0C2.3,38.7,0.1,31.2,0,23.6c-0.1,8,2.1,16,6.5,19.5
				c8.6,6.7,100.5,6.7,109,0c4.4-3.4,6.6-11.5,6.5-19.5C121.9,31.2,119.7,38.7,115.5,42z"/>
		</g>
	</g>
</g>
</svg>
