<?xml version="1.0" encoding="utf-8"?>
<!-- Generator: Adobe Illustrator 23.1.0, SVG Export Plug-In . SVG Version: 6.00 Build 0)  -->
<svg version="1.1" id="Capa_1" xmlns="http://www.w3.org/2000/svg" xmlns:xlink="http://www.w3.org/1999/xlink" x="0px" y="0px"
	 viewBox="0 0 195 45" style="enable-background:new 0 0 195 45;" xml:space="preserve">
<style type="text/css">
	.st0{fill:#497214;}
	.st1{fill:#CCCCCC;}
	.st2{fill-opacity:0.2;}
	.st3{fill:#FFFFFF;}
	.st4{fill:#85C041;}
	.st5{fill:#E6E6E6;}
	.st6{opacity:5.000000e-02;}
	.st7{opacity:0.2;fill:#FFFFFF;}
</style>
<g>
	<g id="_2674317511344_3_">
		<path class="st0" d="M190.5,0H4.3C1-0.5,0,8.3,0,18.5l194.7,0C194.7,8.4,195,0.5,190.5,0z"/>
		<path class="st1" d="M0,19c1.2,0,2.3-0.1,3.5-0.1C3.6,11.1,4,3.1,6.2,0.7C5.7,0.3,5,0,4.3,0C0.7,0,0,9.7,0,19z"/>
		<path class="st1" d="M190.5,0c-0.7,0-1.2,0.2-1.7,0.6c2.5,2.3,2.8,10.2,2.7,17.9c1.2,0,2.4,0.1,3.5,0.1C195.1,9.5,194.7,0,190.5,0
			z"/>
	</g>
	<g id="g2128_3_">
		<path class="st2" d="M7.9,18.1C7.8,23.9,7.4,35,7.4,37.7c0,4,3.5,7.3,7.8,7.3h82.3h82.3c4.3,0,7.8-3.3,7.8-7.3
			c0-2.7-0.4-13.8-0.5-19.6C139.2,16.6,53.6,16.5,7.9,18.1z"/>
		<path class="st3" d="M4.4,0c7.1,0,4.5,26.4,4.5,33.5c0,4.1,3.4,7.5,7.6,7.5h81h81c4.2,0,7.6-3.4,7.6-7.5c0-7.1-2.7-33.5,4.5-33.5
			H97.5H4.4z"/>
		<path class="st4" d="M9.4,0c6.7,0,4.2,23.3,4.2,29.5c0,3.6,3.2,6.6,7.2,6.6h76.8h76.8c3.9,0,7.2-3,7.2-6.6
			c0-6.2-2.5-29.5,4.2-29.5H97.5H9.4z"/>
		<path class="st5" d="M178.5,39.7h-81h-81c-4.1,0-7.4-3.2-7.6-7.1c0,0.3,0,0.6,0,0.9c0,4.1,3.4,7.5,7.6,7.5h81h81
			c4.2,0,7.6-3.4,7.6-7.5c0-0.3,0-0.6,0-0.9C185.9,36.6,182.5,39.7,178.5,39.7z"/>
		<path class="st6" d="M91,30.5c-22.6-1.2-53.8-3.5-73.5-7c-1.2-0.2-2.4-0.4-3.6-0.7c0,0.2,0,0.5,0,0.7c-0.1,2.5-0.2,4.6-0.2,5.9
			c0,0.4,0,0.7,0.1,1c0.5,3.1,3.5,5.6,7.1,5.6h76.8h76.8c3.5,0,6.4-2.3,7-5.3C153,31.9,116.1,31.9,91,30.5z"/>
		<path class="st7" d="M13.1,4.8c50-2.5,119.7-2.7,169.2-1.6c0.7-2,1.8-3.2,3.3-3.2H9.4C11.3,0,12.5,1.9,13.1,4.8z"/>
	</g>
</g>
</svg>
