<?xml version="1.0" encoding="utf-8"?>
<!-- Generator: Adobe Illustrator 23.1.0, SVG Export Plug-In . SVG Version: 6.00 Build 0)  -->
<svg version="1.1" id="Capa_1" xmlns="http://www.w3.org/2000/svg" xmlns:xlink="http://www.w3.org/1999/xlink" x="0px" y="0px"
	 viewBox="0 0 315 200" style="enable-background:new 0 0 315 200;" xml:space="preserve">
<style type="text/css">
	.st0{fill-opacity:0.2;}
	.st1{fill:#FFFFFF;}
	.st2{fill:#F5E3A9;}
	.st3{fill:#EFCF6F;}
	.st4{fill:#FAEECC;}
	.st5{fill:#F3DB95;}
	.st6{fill:#E6E6E6;}
</style>
<g id="_2674317510320_5_">
	<path class="st0" d="M303.3,3.4c-17-2.6-274.5-2.6-291.6,0C5.9,4.3,1.3,9.2,0.9,15.3C-0.3,35.5-0.3,169,1,188
		c0.4,5.2,4.6,10,9.4,11.3c3.6,1,290.5,1,294.1,0c4.9-1.3,9.1-6.1,9.4-11.3c1.3-19,1.3-152.5,0.1-172.7
		C313.7,9.2,309.1,4.3,303.3,3.4z"/>
	<path class="st1" d="M303,2c-17-2.6-274.1-2.6-291,0C6.2,2.9,1.6,7.8,1.2,13.9C0,34.1,0,167.6,1.3,186.5c0.4,5.2,4.6,10,9.4,11.3
		c3.6,1,290,1,293.5,0c4.8-1.3,9-6.1,9.4-11.3c1.3-19,1.3-152.5,0.1-172.7C313.4,7.8,308.8,2.9,303,2z"/>
	<path class="st2" d="M301.4,2.9C285,0.4,30,0.4,13.6,2.9C7.9,3.8,3.5,8.6,3.1,14.5C1.9,34.1,1.9,166.4,3.2,184.8
		c0.4,5.1,4.4,9.7,9.1,11c3.5,0.9,286.8,0.9,290.3,0c4.7-1.3,8.8-5.9,9.1-11c1.3-18.4,1.3-150.7,0.1-170.3
		C311.5,8.6,307.1,3.8,301.4,2.9z"/>
	<path class="st3" d="M309.7,180.6c-0.3,5.1-4.4,9.7-9.1,11c-3.5,0.9-283.5,1.1-287,0.1c-4.7-1.3-8.8-5.9-9.1-11
		c-1-14.8-2-134.9-1.8-156.4C2,45.8,2.1,169,3.2,184.8c0.4,5.1,4.4,9.7,9.1,11c3.5,0.9,286.8,0.9,290.3,0c4.7-1.3,8.8-5.9,9.1-11
		c1.1-16.5,1.3-142,0.4-163.3C312.4,43,310.7,165.1,309.7,180.6z"/>
	<path class="st4" d="M309.7,180.6c-0.3,5.1-4.4,9.7-9.1,11c-3.5,0.9-283.5,1.1-287,0.1c-4.7-1.3-8.8-5.9-9.1-11
		C3.5,167.6,2.7,52.4,2.6,31.9c0,0,0,0,0,0c0,20.6,0.9,136.2,1.8,149.4c0.3,5.1,4.4,9.7,9.1,11c3.5,0.9,283.5,0.8,287-0.1
		c4.7-1.3,8.8-5.9,9.1-11c1-14.6,2.6-134.3,2.5-155.7C312.2,46.8,310.7,166.1,309.7,180.6z"/>
	<path class="st5" d="M4,172.3c0.2,3.1,0.3,6,0.5,8.4c0.3,5.1,4.4,9.7,9.1,11c3.5,0.9,283.5,0.8,287-0.1c4.7-1.3,8.8-5.9,9.1-11
		c0.1-0.7,0.1-1.5,0.2-2.3C272.4,188.8,49.4,184.7,4,172.3z"/>
	<path class="st4" d="M311.9,14.5c-0.4-5.9-4.8-10.7-10.4-11.6C285,0.4,30,0.4,13.6,2.9C7.9,3.8,3.5,8.6,3.1,14.5
		c-0.2,2.9-0.3,6.2-0.5,9.9c0,0.7,0,1.3,0,2c0.1-3.9,0.3-7.5,0.5-10.5c0.2-3,1.4-5.7,3.3-7.8c-0.3,0.7-0.3,1.4-0.1,2
		c0.7,1.6,3.6,2,6.3,0.7c2.7-1.2,4.4-3.6,3.6-5.2c-0.3-0.7-1-1.2-2-1.4c17.9-2.4,270.8-2.4,287.1,0.1c5.7,0.9,10.1,5.7,10.4,11.6
		c0.1,2.2,0.3,4.6,0.4,7.3c0-0.6,0-1.1,0-1.7C312.1,18.9,312,16.6,311.9,14.5z"/>
	<path class="st6" d="M304.3,197.1c-3.6,1-290,1-293.5,0c-4.8-1.3-9-6.1-9.4-11.3c-0.7-9.6-1-104.1-1-120.1c0,0,0,0.1,0,0.1
		c0,16.2,0.3,111,1,120.7c0.4,5.2,4.6,10,9.4,11.3c3.6,1,290,1,293.5,0c4.8-1.3,9-6.1,9.4-11.3c0.7-9.8,1-104.6,1-120.8
		c0,16-0.3,110.5-1,120.1C313.3,191,309.1,195.8,304.3,197.1z"/>
</g>
</svg>
