<?xml version="1.0" encoding="utf-8"?>
<!-- Generator: Adobe Illustrator 19.2.1, SVG Export Plug-In . SVG Version: 6.00 Build 0)  -->
<svg version="1.1" id="Capa_1" xmlns="http://www.w3.org/2000/svg" xmlns:xlink="http://www.w3.org/1999/xlink" x="0px" y="0px"
	 viewBox="0 0 407 40" style="enable-background:new 0 0 407 40;" xml:space="preserve">
<style type="text/css">
	.st0{fill:#2C7431;}
	.st1{fill:#CECDCD;}
	.st2{fill:#010202;fill-opacity:0.2;}
	.st3{fill:#FFFFFF;}
	.st4{fill:#6BB538;}
	.st5{fill:#E7E7E7;}
	.st6{opacity:5.000000e-002;fill:#010202;}
	.st7{opacity:0.2;fill:#FFFFFF;}
</style>
<g>
	<g id="_2674317511344_1_">
		<path class="st0" d="M401.7,0H5.1c-6.3,0-5,22.8-5,22.8L407,22.5C407,10.2,407,0.5,401.7,0z"/>
		<path class="st1" d="M0,22.8c1.4-0.1,2.8-0.1,4.2-0.2c0-9.3,0.6-18.9,3.1-21.8C6.7,0.3,6,0,5.1,0C0.8,0,0.1,11.6,0,22.8z"/>
		<path class="st1" d="M401.7,0c-0.8,0-1.5,0.3-2,0.8c3,2.7,3.3,12.2,3.2,21.5c1.4,0,2.8,0.1,4.2,0.1C407.1,11.4,406.6,0,401.7,0z"
			/>
	</g>
	<g id="g2128_1_">
		<path class="st2" d="M9.3,14.8C9.2,21.6,8.8,28,8.8,31.2c0,4.8,4.1,8.8,9.2,8.8h185.5H389c5,0,9.2-3.9,9.2-8.8
			c0-3.2-0.5-9.5-0.6-16.5C341.1,12.9,63.3,12.8,9.3,14.8z"/>
		<path class="st3" d="M5.2,0c8.4,0,5.3,17.7,5.3,26.2c0,5,4.1,9,9,9h184h184c5,0,9-4,9-9c0-8.5-3.2-26.2,5.3-26.2H203.5H5.2z"/>
		<path class="st4" d="M11.1,0c7.9,0,5,13.9,5,21.4c0,4.4,3.8,7.9,8.5,7.9h179h179c4.7,0,8.5-3.6,8.5-7.9c0-7.5-3-21.4,5-21.4H203.5
			H11.1z"/>
		<path class="st5" d="M387.5,33.7h-184h-184c-4.8,0-8.7-3.8-9-8.5c0,0.4,0,0.8,0,1.1c0,5,4.1,9,9,9h184h184c5,0,9-4,9-9
			c0-0.3,0-0.7,0-1.1C396.2,29.9,392.3,33.7,387.5,33.7z"/>
		<path class="st6" d="M195.6,25.7C134.3,24.7,16,19.8,16,21.4c0,0.4,0,0.8,0.1,1.3c0.6,3.8,4.2,6.7,8.4,6.7h179h179
			c4.1,0,7.5-2.7,8.3-6.4C357.4,24.3,225.3,26.1,195.6,25.7z"/>
		<path class="st7" d="M15.5,5.7c59-3,318.1-3.3,376.5-1.9c0.8-2.4,2.1-3.8,3.9-3.8H11.1C13.3,0,14.7,2.3,15.5,5.7z"/>
	</g>
</g>
</svg>
