<?xml version="1.0" encoding="utf-8"?>
<!-- Generator: Adobe Illustrator 19.2.1, SVG Export Plug-In . SVG Version: 6.00 Build 0)  -->
<svg version="1.1" id="Capa_1" xmlns="http://www.w3.org/2000/svg" xmlns:xlink="http://www.w3.org/1999/xlink" x="0px" y="0px"
	 viewBox="0 0 300 40" style="enable-background:new 0 0 300 40;" xml:space="preserve">
<style type="text/css">
	.st0{fill:#2C7431;}
	.st1{fill:#CECDCD;}
	.st2{fill:#010202;fill-opacity:0.2;}
	.st3{fill:#FFFFFF;}
	.st4{fill:#6BB538;}
	.st5{fill:#E7E7E7;}
	.st6{opacity:5.000000e-002;fill:#010202;enable-background:new    ;}
	.st7{opacity:0.2;fill:#FFFFFF;enable-background:new    ;}
</style>
<g>
	<g id="_2674317511344_1_">
		<path class="st0" d="M292.6,0H7.1c-6.3,0-5,22.8-5,22.8l295.8-0.3C297.9,10.2,297.9,0.5,292.6,0z"/>
		<path class="st1" d="M2,22.8c1.4-0.1,2.8-0.1,4.2-0.2c0-9.3,0.6-18.9,3.1-21.8C8.7,0.3,8,0,7.1,0C2.8,0,2.1,11.6,2,22.8z"/>
		<path class="st1" d="M292.6,0c-0.8,0-1.5,0.3-2,0.8c3,2.7,3.3,12.2,3.2,21.5c1.4,0,2.8,0.1,4.2,0.1C298,11.4,297.5,0,292.6,0z"/>
	</g>
	<g id="g2128_1_">
		<path class="st2" d="M11.3,14.8c-0.1,6.8-0.5,13.2-0.5,16.4c0,4.8,4.1,8.8,9.2,8.8h130h129.9c5,0,9.2-3.9,9.2-8.8
			c0-3.2-0.5-9.5-0.6-16.5C232,12.9,65.3,12.8,11.3,14.8z"/>
		<path class="st3" d="M7.2,0c8.4,0,5.3,17.7,5.3,26.2c0,5,4.1,9,9,9H150h128.4c5,0,9-4,9-9c0-8.5-3.2-26.2,5.3-26.2H150H7.2z"/>
		<path class="st4" d="M13.1,0c7.9,0,5,13.9,5,21.4c0,4.4,3.8,7.9,8.5,7.9h123.5h123.4c4.7,0,8.5-3.6,8.5-7.9c0-7.5-3-21.4,5-21.4
			H150H13.1z"/>
		<path class="st5" d="M278.4,33.7H150H21.5c-4.8,0-8.7-3.8-9-8.5c0,0.4,0,0.8,0,1.1c0,5,4.1,9,9,9H150h128.4c5,0,9-4,9-9
			c0-0.3,0-0.7,0-1.1C287.1,29.9,283.2,33.7,278.4,33.7z"/>
		<path class="st6" d="M142.1,25.7C80.8,24.7,18,19.8,18,21.4c0,0.4,0,0.8,0.1,1.3c0.6,3.8,4.2,6.7,8.4,6.7H150h123.4
			c4.1,0,7.5-2.7,8.3-6.4C248.3,24.3,171.8,26.1,142.1,25.7z"/>
		<path class="st7" d="M17.5,5.7c59-3,207-3.3,265.4-1.9c0.8-2.4,2.1-3.8,3.9-3.8H13.1C15.3,0,16.7,2.3,17.5,5.7z"/>
	</g>
</g>
</svg>
