<?xml version="1.0" encoding="utf-8"?>
<!-- Generator: Adobe Illustrator 23.1.0, SVG Export Plug-In . SVG Version: 6.00 Build 0)  -->
<svg version="1.1" id="Capa_1" xmlns="http://www.w3.org/2000/svg" xmlns:xlink="http://www.w3.org/1999/xlink" x="0px" y="0px"
	 viewBox="0 0 100 30" style="enable-background:new 0 0 100 30;" xml:space="preserve">
<style type="text/css">
	.st0{fill:#1A1A1A;fill-opacity:0.2;}
	.st1{fill:#FFFFFF;}
	.st2{fill:#BABABA;}
	.st3{opacity:5.000000e-02;fill:#1A1A1A;}
	.st4{opacity:0.2;fill:#FFFFFF;}
</style>
<g id="g5530_4_">
	<path class="st0" d="M4,4.2c-5.4,4-5.4,18.7,0,22.8c5.3,4,86.7,4,92,0c5.4-4.1,5.3-18.7,0-22.8C90.5,0.1,9.5,0.1,4,4.2z"/>
	<path class="st1" d="M4,3.1c-5.4,4.1-5.4,18.7,0,22.8c5.3,4,86.7,4,92,0c5.4-4.1,5.3-18.7,0-22.8C90.5-1,9.5-1,4,3.1z"/>
	<path class="st2" d="M5.4,3.4c-4.9,3.7-4.9,17,0,20.6c4.8,3.6,84.4,3.6,89.2,0c4.9-3.7,4.8-17,0-20.6C89.7-0.3,10.3-0.3,5.4,3.4z"
		/>
	<path class="st3" d="M94.6,21.3c-4.8,3.6-84.4,3.6-89.2,0c-2.2-1.6-3.4-5.2-3.6-8.9C1.5,17,2.7,22,5.4,24c4.8,3.6,84.4,3.6,89.2,0
		c2.7-2,3.9-7,3.6-11.7C97.9,16.1,96.8,19.6,94.6,21.3z"/>
	<path class="st3" d="M3.9,19.6c0.4,0.7,1,1.3,1.5,1.7c4.8,3.6,84.4,3.6,89.2,0c1.9-1.4,3-4.2,3.4-7.3C89,18.9,16,20.8,3.9,19.6z"/>
	<path class="st4" d="M5.4,3.4C4,4.5,2.9,6.5,2.4,8.8c8.4-6.6,87.7-7.7,94.9-1.4c-0.6-1.7-1.5-3.1-2.6-4C89.7-0.3,10.3-0.3,5.4,3.4z
		"/>
	<path class="st4" d="M9.3,2.5C7.2,3,5.5,4.1,5.5,4.9c0,0.9,1.7,1.2,3.7,0.8C11.3,5.3,13,4.2,13,3.3C13,2.4,11.3,2.1,9.3,2.5z"/>
	<path class="st4" d="M15.5,1.8c-1.2,0.1-2.2,0.5-2.4,1C13,3.2,13.8,3.5,15,3.5c1.2-0.1,2.2-0.5,2.4-1C17.5,2,16.6,1.7,15.5,1.8z"/>
	<path class="st4" d="M92.1,19.3c-1.3,0.5-2.3,1.3-2.1,1.9c0.1,0.6,1.3,0.7,2.6,0.2c1.3-0.5,2.3-1.3,2.1-1.9
		C94.6,18.9,93.4,18.8,92.1,19.3z"/>
	<path class="st4" d="M98,13.9c-0.4,3.1-1.6,5.9-3.4,7.3c-4.8,3.6-84.4,3.6-89.2,0c-0.6-0.4-1.1-1-1.5-1.7c-1.2-1.8-1.9-4.5-2.1-7.2
		c0,0.5,0,1.1,0,1.6c0-0.4,0-0.8,0-1.1c0.2,3.7,1.4,7.3,3.6,8.9c4.8,3.6,84.4,3.6,89.2,0c2.2-1.6,3.4-5.2,3.6-8.9c0,0.4,0,0.8,0,1.1
		c0-0.5,0-1.1,0-1.6C98.2,12.9,98.1,13.4,98,13.9z"/>
	<path class="st1" d="M96,25.2c-5.3,4-86.7,4-92,0c-2.6-2-4-6.5-4-11c-0.1,4.8,1.3,9.6,4,11.7c5.3,4,86.7,4,92,0
		c2.7-2.1,4.1-6.9,4-11.7C99.9,18.7,98.6,23.2,96,25.2z"/>
</g>
</svg>
