<?xml version="1.0" encoding="utf-8"?>
<!-- Generator: Adobe Illustrator 19.2.1, SVG Export Plug-In . SVG Version: 6.00 Build 0)  -->
<svg version="1.1" id="Capa_1" xmlns="http://www.w3.org/2000/svg" xmlns:xlink="http://www.w3.org/1999/xlink" x="0px" y="0px"
	 viewBox="0 0 100 30" style="enable-background:new 0 0 100 30;" xml:space="preserve">
<style type="text/css">
	.st0{fill:#010202;fill-opacity:0.2;}
	.st1{fill:#FFFFFF;}
	.st2{fill:#6BB538;}
	.st3{opacity:5.000000e-002;fill:#010202;}
	.st4{opacity:0.2;fill:#FFFFFF;}
	.st5{fill:#E7E7E7;}
</style>
<g id="g5530_3_">
	<path class="st0" d="M3.7,4.2c-4.3,4-4.3,18.7,0,22.8C8,31,92,31,96.3,27c4.3-4.1,4.3-18.7,0-22.8C91.9,0.1,8.1,0.1,3.7,4.2z"/>
	<path class="st1" d="M3.7,3.1c-4.3,4.1-4.3,18.7,0,22.8c4.2,4,88.3,4,92.6,0c4.3-4.1,4.3-18.7,0-22.8C91.9-1,8.1-1,3.7,3.1z"/>
	<path class="st2" d="M4.8,3.4c-3.9,3.7-3.9,17,0,20.6c3.8,3.6,86.5,3.6,90.3,0c3.9-3.7,3.9-17,0-20.6C91.2-0.3,8.8-0.3,4.8,3.4z"/>
	<path class="st3" d="M95.2,21.3c-3.8,3.6-86.5,3.6-90.3,0c-1.7-1.6-2.7-5.2-2.9-8.9C1.7,17,2.7,22,4.8,24c3.8,3.6,86.5,3.6,90.3,0
		c2.2-2,3.1-7,2.9-11.7C97.9,16.1,96.9,19.6,95.2,21.3z"/>
	<path class="st3" d="M3.6,19.6c0.4,0.7,0.8,1.3,1.2,1.7c3.8,3.6,86.5,3.6,90.3,0c1.5-1.4,2.4-4.2,2.8-7.3
		C90.7,18.9,13.3,20.8,3.6,19.6z"/>
	<path class="st4" d="M4.8,3.4c-1.2,1.1-2,3.1-2.5,5.4c6.7-6.6,89.2-7.7,94.9-1.4c-0.5-1.7-1.2-3.1-2.1-4C91.2-0.3,8.8-0.3,4.8,3.4z
		"/>
	<path class="st4" d="M7.9,2.5c-1.7,0.4-3,1.5-3,2.4c0,0.9,1.3,1.2,3,0.8c1.7-0.4,3-1.5,3-2.4C10.9,2.4,9.6,2.1,7.9,2.5z"/>
	<path class="st4" d="M12.9,1.8c-0.9,0.1-1.8,0.5-1.9,1c-0.1,0.5,0.6,0.8,1.5,0.8c0.9-0.1,1.8-0.5,1.9-1C14.5,2,13.8,1.7,12.9,1.8z"
		/>
	<path class="st4" d="M93.2,19.3c-1,0.5-1.8,1.3-1.7,1.9c0.1,0.6,1,0.7,2.1,0.2c1-0.5,1.8-1.3,1.7-1.9
		C95.2,18.9,94.2,18.8,93.2,19.3z"/>
	<path class="st4" d="M97.9,13.9c-0.3,3.1-1.3,5.9-2.8,7.3c-3.8,3.6-86.5,3.6-90.3,0c-0.5-0.4-0.9-1-1.2-1.7c-1-1.8-1.5-4.5-1.6-7.2
		c0,0.5,0,1.1,0,1.6c0-0.4,0-0.8,0-1.1c0.2,3.7,1.1,7.3,2.9,8.9c3.8,3.6,86.5,3.6,90.3,0c1.7-1.6,2.7-5.2,2.9-8.9c0,0.4,0,0.8,0,1.1
		c0-0.5,0-1.1,0-1.6C98,12.9,98,13.4,97.9,13.9z"/>
	<path class="st5" d="M96.3,25.2c-4.2,4-88.3,4-92.6,0c-2.1-2-3.2-6.5-3.2-11c0,4.8,1,9.6,3.2,11.7c4.2,4,88.3,4,92.6,0
		c2.2-2.1,3.3-6.9,3.2-11.7C99.5,18.7,98.4,23.2,96.3,25.2z"/>
</g>
</svg>
