<?xml version="1.0" encoding="utf-8"?>
<!-- Generator: Adobe Illustrator 23.1.0, SVG Export Plug-In . SVG Version: 6.00 Build 0)  -->
<svg version="1.1" id="Capa_1" focusable="false" xmlns="http://www.w3.org/2000/svg" xmlns:xlink="http://www.w3.org/1999/xlink"
	 x="0px" y="0px" viewBox="0 0 448 512" style="enable-background:new 0 0 448 512;" xml:space="preserve">
<style type="text/css">
	.st0{fill:#FFFFFF;}
	.st1{fill:#EC6052;}
	.st2{fill:#E6321C;}
</style>
<g>
	<g>
		<path class="st0" d="M341.6,510.6H106.4c-0.9,0-1.7,0-2.6-0.1c-0.2,0-0.4,0-0.7,0h-0.2c-0.6,0-1.2-0.1-1.7-0.1
			c-0.3,0-0.5-0.1-0.8-0.1h-0.2c-0.5-0.1-1-0.1-1.6-0.2c-0.3,0-0.7-0.1-1-0.2c-0.5-0.1-1-0.2-1.5-0.2c-0.4-0.1-0.7-0.1-1-0.2
			c-0.5-0.1-1-0.2-1.4-0.3c-0.3-0.1-0.7-0.2-1-0.3c-0.5-0.1-0.9-0.2-1.4-0.4l-0.2-0.1c-0.3-0.1-0.6-0.2-0.8-0.2
			c-0.4-0.1-0.9-0.3-1.4-0.4l-0.2-0.1c-0.3-0.1-0.5-0.2-0.7-0.3c-0.5-0.2-1.1-0.4-1.7-0.6c-0.5-0.2-1-0.4-1.5-0.6l-0.2-0.1
			c-0.4-0.2-0.8-0.3-1.2-0.5c-0.3-0.1-0.6-0.3-1-0.5l-0.3-0.2c-0.3-0.1-0.6-0.3-0.9-0.4c-0.4-0.2-0.7-0.4-1.1-0.6L80,504
			c-0.3-0.2-0.6-0.3-0.9-0.5c-0.4-0.2-0.8-0.5-1.2-0.7c-0.3-0.2-0.6-0.3-0.8-0.5c-0.4-0.3-0.8-0.5-1.2-0.8c-0.2-0.2-0.5-0.3-0.7-0.5
			c-0.4-0.3-0.8-0.6-1.3-0.9c-0.2-0.1-0.3-0.2-0.5-0.4l-0.1-0.1c-0.4-0.3-0.9-0.7-1.3-1l-0.3-0.2c-2.3-1.8-4.4-3.8-6.3-5.9l-0.1-0.1
			c-0.5-0.5-0.9-1-1.4-1.6l-0.2-0.2c-0.4-0.5-0.8-1-1.2-1.6l-0.2-0.3c-0.4-0.5-0.8-1.1-1.2-1.6l-0.1-0.2c-3.4-4.8-5.9-10-7.6-15.6
			l-0.1-0.2l-0.2-0.9c-1.1-3.8-1.8-7.7-2-11.7L30,123.9h388l-20.9,334.7C395.2,487.8,370.9,510.6,341.6,510.6z M79.3,479.5
			L79.3,479.5c1.3,1.5,2.7,2.8,4.2,4l0.2,0.2c0.3,0.3,0.6,0.5,0.9,0.7l0.4,0.3c0.3,0.2,0.6,0.4,0.8,0.6l0.5,0.3
			c0.3,0.2,0.5,0.4,0.8,0.5c0.2,0.1,0.4,0.2,0.5,0.3c0.3,0.2,0.5,0.3,0.8,0.5c0.2,0.1,0.4,0.2,0.6,0.3l0.1,0.1
			c0.2,0.1,0.4,0.2,0.7,0.4c0.2,0.1,0.3,0.2,0.5,0.2l0.4,0.2c0.2,0.1,0.3,0.2,0.5,0.2c0.2,0.1,0.5,0.2,0.7,0.3l0.2,0.1
			c0.3,0.1,0.6,0.3,1,0.4c0.3,0.1,0.7,0.3,1.1,0.4l0.6,0.2c0.3,0.1,0.6,0.2,0.9,0.3c0.2,0,0.3,0.1,0.4,0.1l0.2,0.1
			c0.3,0.1,0.6,0.2,0.9,0.2c0.2,0.1,0.5,0.1,0.7,0.2c0.3,0.1,0.6,0.1,0.9,0.2c0.2,0,0.5,0.1,0.7,0.1c0.3,0.1,0.6,0.1,0.9,0.2
			c0.2,0,0.4,0.1,0.7,0.1c0.3,0,0.7,0.1,1,0.1l0.7,0.1c0.4,0,0.7,0.1,1.1,0.1h0.5c0.6,0,1.1,0,1.7,0h235.3c19.2,0,35.1-15,36.3-34.1
			L397.6,143H50.4l19.7,314.3c0.2,2.5,0.6,5.1,1.3,7.6v0.2c1.1,3.9,2.8,7.5,5.1,10.8l0.1,0.1c0.3,0.4,0.5,0.8,0.8,1.1l0.2,0.2
			c0.2,0.3,0.5,0.7,0.8,1l0.1,0.1C78.8,478.8,79.1,479.1,79.3,479.5z"/>
	</g>
	<g>
		<path class="st0" d="M423.1,112.4H24.9C11.2,112.4,0,101.2,0,87.5V56.9C0,43.2,11.2,32,24.9,32h109l6.3-12.6c5.4-11,16.7-18,29-18
			h0.1h109.4l0,0c12.4,0,23.6,6.9,29.1,18l6.3,12.6h109c13.7,0,24.9,11.2,24.9,24.9v30.6C448,101.2,436.8,112.4,423.1,112.4z
			 M24.9,51.1c-3.2,0-5.7,2.6-5.7,5.7v30.6c0,3.2,2.6,5.7,5.7,5.7h398.2c3.2,0,5.7-2.6,5.7-5.7V56.9c0-3.2-2.6-5.7-5.7-5.7H302.3
			L290.7,28c-2.3-4.6-6.9-7.5-12-7.5l0,0H169.2c0,0,0,0-0.1,0c-5,0-9.6,2.9-11.8,7.4V28l-11.6,23.2H24.9V51.1z"/>
	</g>
</g>
<path class="st1" d="M423.1,41.6H308.2l-9-17.9c-3.9-7.8-11.9-12.7-20.6-12.7H169.2c-8.7,0-16.7,4.9-20.5,12.7l-9,17.9H24.9
	c-8.5,0-15.3,6.9-15.3,15.3v30.6c0,8.5,6.9,15.3,15.3,15.3h398.2c8.5,0,15.3-6.9,15.3-15.3V56.9C438.4,48.4,431.6,41.6,423.1,41.6z
	 M60.5,458c1.5,24.2,21.6,43.1,45.9,43.1h235.3c24.3,0,44.3-18.9,45.9-43.1l20.3-324.5H40.2L60.5,458z"/>
<path class="st2" d="M106.4,501.1h235.3c24.3,0,44.3-18.9,45.9-43.1l20.3-324.5h-47.7l-18.4,310.2c0,0,9.6,26.8-52.6,25.8
	c-51.1-0.8-182-2.9-227.4-3.6C66.6,486.2,84.8,501.1,106.4,501.1z"/>
<path class="st2" d="M261,42.5l46.9-1l-9-17.9c-3.9-7.8-11.9-12.7-20.6-12.7h-36.1C250.3,17.8,261.6,26.4,261,42.5z"/>
<path class="st2" d="M438,87.5V56.9c0-8.5-6.9-15.3-15.3-15.3h-52.2c2.9,13,5.7,35.6-1.9,61.3h54C431.2,102.8,438,96,438,87.5z"/>
</svg>
