<?xml version="1.0" encoding="utf-8"?>
<!-- Generator: Adobe Illustrator 19.2.1, SVG Export Plug-In . SVG Version: 6.00 Build 0)  -->
<svg version="1.1" id="Capa_1" xmlns="http://www.w3.org/2000/svg" xmlns:xlink="http://www.w3.org/1999/xlink" x="0px" y="0px"
	 viewBox="0 0 25 25" style="enable-background:new 0 0 25 25;" xml:space="preserve">
<style type="text/css">
	.st0{fill-opacity:0.2;}
	.st1{fill:#FFFFFF;}
	.st2{fill:url(#SVGID_1_);}
	.st3{fill:#EAB000;}
	.st4{fill:#E6E6E6;}
	.st5{fill:#FFF600;}
	.st6{fill:#FFC600;}
	.st7{opacity:0.5;fill:#EAB000;}
</style>
<g id="g6950_1_">
	<path class="st0" d="M24,8.8c-0.4-0.4-0.9-0.7-1.5-0.8l-0.1,0l-5.2-0.8L17,6.9l0,0c-0.9-2.1-2.2-5.4-4.5-5.5
		c-2.4,0-3.7,3.4-4.6,5.5L7.8,7.2L2.6,8L2.6,8C1.9,8.2,1.4,8.4,1,8.8c-0.3,0.3-0.5,0.6-0.6,1v0c-0.1,0.4-0.1,0.7,0,1.1h0
		c0.1,0.5,0.4,1,0.8,1.4v0L5,16.1l-0.8,5v0c-0.1,0.7,0,1.3,0.3,1.8c0.2,0.4,0.5,0.7,0.8,0.9h0c0.3,0.2,0.7,0.4,1.1,0.4
		c0.5,0.1,1.1,0,1.6-0.3v0l4.6-2.4l4.6,2.4l0,0c0.5,0.3,1.1,0.4,1.6,0.3c0.4-0.1,0.8-0.2,1.1-0.4c0.3-0.2,0.6-0.5,0.8-0.9
		c0.3-0.5,0.4-1.1,0.3-1.8v0l-0.8-5l3.8-3.7v0c0.4-0.4,0.7-0.9,0.8-1.4c0.1-0.4,0.1-0.7,0-1.1C24.4,9.5,24.2,9.1,24,8.8z"/>
	<path class="st1" d="M24,8.1c-0.4-0.4-0.9-0.7-1.5-0.8l-0.1,0l-5.2-0.8L17,6.2l0,0c-0.9-2.1-2.2-5.4-4.5-5.5
		c-2.4,0-3.7,3.4-4.6,5.5L7.8,6.5L2.6,7.3l-0.1,0C1.9,7.5,1.4,7.8,1,8.1c-0.3,0.3-0.5,0.6-0.6,1v0c-0.1,0.4-0.1,0.7,0,1.1h0
		c0.1,0.5,0.4,1,0.8,1.4L5,15.4l-0.8,5v0c-0.1,0.7,0,1.3,0.3,1.8c0.2,0.4,0.5,0.7,0.8,0.9h0c0.3,0.2,0.7,0.4,1.1,0.4
		c0.5,0.1,1.1,0,1.6-0.3v0l4.6-2.4l4.6,2.4l0,0c0.5,0.3,1.1,0.4,1.6,0.3c0.4-0.1,0.8-0.2,1.1-0.4c0.3-0.2,0.6-0.5,0.8-0.9
		c0.3-0.5,0.4-1.1,0.3-1.8v0l-0.8-5l3.8-3.7c0.4-0.4,0.7-0.9,0.8-1.4c0.1-0.4,0.1-0.7,0-1.1C24.4,8.8,24.2,8.4,24,8.1z"/>
	<linearGradient id="SVGID_1_" gradientUnits="userSpaceOnUse" x1="12.5007" y1="2.2286" x2="12.5007" y2="22.0798">
		<stop  offset="0" style="stop-color:#FFCC00"/>
		<stop  offset="1" style="stop-color:#FFF600"/>
	</linearGradient>
	<path class="st2" d="M22.2,8.8l-6-0.9c-0.6-1.2-2-5.6-3.7-5.6c-1.7,0-3.1,4.5-3.6,5.6l-6,0.9C1.7,9,1.6,10,2.2,10.6l4.3,4.3l-1,5.8
		c-0.2,1.1,0.8,1.8,1.7,1.3l5.2-2.7l5.2,2.7c0.9,0.5,1.8-0.2,1.7-1.3l-1-5.8l4.3-4.3C23.4,10,23.3,9,22.2,8.8z"/>
	<path class="st3" d="M19.3,20.2c-0.2,0.6-0.9,0.9-1.6,0.6l-5.2-2.7l-5.2,2.7c-0.7,0.3-1.4,0.1-1.6-0.6l-0.1,0.4
		c-0.2,1.1,0.8,1.8,1.7,1.3l5.2-2.7l5.2,2.7c0.9,0.5,1.8-0.2,1.7-1.3L19.3,20.2z"/>
	<path class="st3" d="M22.8,9.5l-4.5,4.4l0.2,1l4.3-4.3c0.4-0.4,0.5-1,0.2-1.4C22.9,9.3,22.9,9.4,22.8,9.5z"/>
	<path class="st3" d="M2,9.2c-0.3,0.4-0.2,1,0.2,1.4l4.3,4.3l0.2-1L2.2,9.5C2.1,9.4,2.1,9.3,2,9.2z"/>
	<path class="st4" d="M20.6,21.5c-0.2,0.4-0.5,0.7-0.8,0.9c-0.3,0.2-0.7,0.4-1.1,0.4c-0.5,0.1-1.1,0-1.6-0.3l-4.6-2.4l-4.6,2.4
		c-0.5,0.3-1.1,0.4-1.6,0.3c-0.4-0.1-0.8-0.2-1.1-0.4c-0.3-0.2-0.6-0.5-0.8-0.9c-0.2-0.3-0.3-0.6-0.3-1c-0.1,0.6,0.1,1.2,0.3,1.6
		c0.2,0.4,0.5,0.7,0.8,0.9c0.3,0.2,0.7,0.4,1.1,0.4c0.5,0.1,1.1,0,1.6-0.3l4.6-2.4l4.6,2.4c0.5,0.3,1.1,0.4,1.6,0.3
		c0.4-0.1,0.8-0.2,1.1-0.4c0.3-0.2,0.6-0.5,0.8-0.9c0.2-0.5,0.4-1,0.3-1.6C20.8,20.9,20.7,21.2,20.6,21.5z"/>
	<path class="st5" d="M12.5,2.2c-1.7,0-3.1,4.5-3.6,5.6l-6,0.9C2.4,8.8,2.2,9,2,9.2l0.2,0.2l2.4,2.3c2.2-1,4.8-2,7.8-2.7
		c1.7-0.4,3.4-0.8,5-1l-1.3-0.2C15.5,6.6,14.2,2.2,12.5,2.2z"/>
	<path class="st6" d="M14.5,17.3c-3.1,0.8-6.1,1.2-8.5,1.3l-0.3,1.6c0.2,0.6,0.9,0.9,1.6,0.6l5.2-2.7l5.2,2.7
		c0.7,0.3,1.4,0.1,1.6-0.6L18.6,16C17.3,16.5,15.9,16.9,14.5,17.3z"/>
</g>
<path class="st7" d="M22.2,9.1l-6-0.9c-0.6-1.2-2-5.6-3.7-5.6c-1.7,0-3.1,4.5-3.6,5.6l-6,0.9c-1.2,0.2-1.3,1.2-0.6,1.8l4.3,4.3
	l-1,5.8c-0.2,1.1,0.8,1.8,1.7,1.3l5.2-2.7l5.2,2.7c0.9,0.5,1.8-0.2,1.7-1.3l-1-5.8l4.3-4.3C23.4,10.3,23.3,9.3,22.2,9.1z"/>
</svg>
